master.ufo
<glyph name="heavyuphorzbxd" format="1">
	<unicode hex="253B"/>
	<advance width="600"/>
	<outline>
		<contour>
			<point x="680" y="140" type="line"/>
			<point x="680" y="460" type="line"/>
			<point x="460" y="460" type="line"/>
			<point x="460" y="1000" type="line"/>
			<point x="140" y="1000" type="line"/>
			<point x="140" y="460" type="line"/>
			<point x="-80" y="460" type="line"/>
			<point x="-80" y="140" type="line"/>
		</contour>
	</outline>
</glyph>
<glyph name="lightleftheavyrightbxd" format="1">
	<unicode hex="257C"/>
	<advance width="600"/>
	<outline>
		<contour>
			<point x="680" y="140" type="line"/>
			<point x="680" y="460" type="line"/>
			<point x="220" y="460" type="line"/>
			<point x="220" y="380" type="line"/>
			<point x="-80" y="380" type="line"/>
			<point x="-80" y="220" type="line"/>
			<point x="220" y="220" type="line"/>
			<point x="220" y="140" type="line"/>
		</contour>
	</outline>
</glyph>
<glyph name="Eogonek" format="1">
	<advance width="600"/>
	<outline>
		<contour>
			<point x="342" y="-228" type="curve" smooth="yes"/>
			<point x="380" y="-228"/>
			<point x="430" y="-216"/>
			<point x="462" y="-194" type="curve"/>
			<point x="432" y="-118" type="line"/>
			<point x="420" y="-124"/>
			<point x="412" y="-126"/>
			<point x="402" y="-126" type="curve" smooth="yes"/>
			<point x="380" y="-126"/>
			<point x="362" y="-114"/>
			<point x="362" y="-94" type="curve" smooth="yes"/>
			<point x="362" y="-48"/>
			<point x="426" y="0"/>
			<point x="472" y="0" type="curve" smooth="yes"/>
			<point x="474" y="0" type="line"/>
			<point x="500" y="134" type="line"/>
			<point x="216" y="134" type="line"/>
			<point x="244" y="268" type="line"/>
			<point x="474" y="268" type="line"/>
			<point x="500" y="402" type="line"/>
			<point x="270" y="402" type="line"/>
			<point x="292" y="516" type="line"/>
			<point x="568" y="516" type="line"/>
			<point x="594" y="650" type="line"/>
			<point x="160" y="650" type="line"/>
			<point x="30" y="0" type="line"/>
			<point x="352" y="0" type="line"/>
			<point x="304" y="-24"/>
			<point x="238" y="-76"/>
			<point x="238" y="-146" type="curve" smooth="yes"/>
			<point x="238" y="-198"/>
			<point x="280" y="-228"/>
		</contour>
		<contour>
			<point name="aboveUC" x="386" y="670" type="move"/>
		</contour>
	</outline>
</glyph>
<glyph name="Iogonek" format="1">
	<advance width="600"/>
	<outline>
		<contour>
			<point x="216" y="-228" type="curve" smooth="yes"/>
			<point x="254" y="-228"/>
			<point x="304" y="-216"/>
			<point x="336" y="-194" type="curve"/>
			<point x="306" y="-118" type="line"/>
			<point x="294" y="-124"/>
			<point x="286" y="-126"/>
			<point x="276" y="-126" type="curve" smooth="yes"/>
			<point x="254" y="-126"/>
			<point x="236" y="-114"/>
			<point x="236" y="-94" type="curve" smooth="yes"/>
			<point x="236" y="-68"/>
			<point x="264" y="-24"/>
			<point x="330" y="0" type="curve"/>
			<point x="466" y="0" type="line"/>
			<point x="494" y="134" type="line"/>
			<point x="344" y="134" type="line"/>
			<point x="422" y="516" type="line"/>
			<point x="570" y="516" type="line"/>
			<point x="598" y="650" type="line"/>
			<point x="140" y="650" type="line"/>
			<point x="112" y="516" type="line"/>
			<point x="262" y="516" type="line"/>
			<point x="184" y="134" type="line"/>
			<point x="36" y="134" type="line"/>
			<point x="8" y="0" type="line"/>
			<point x="216" y="0" type="line"/>
			<point x="178" y="-22"/>
			<point x="112" y="-79"/>
			<point x="112" y="-146" type="curve" smooth="yes"/>
			<point x="112" y="-198"/>
			<point x="154" y="-228"/>
		</contour>
		<contour>
			<point name="aboveUC" x="370" y="670" type="move"/>
		</contour>
	</outline>
</glyph>
<glyph name="Oogonek" format="1">
	<advance width="600"/>
	<outline>
		<contour>
			<point x="216" y="-228" type="curve" smooth="yes"/>
			<point x="254" y="-228"/>
			<point x="304" y="-216"/>
			<point x="336" y="-194" type="curve"/>
			<point x="306" y="-118" type="line"/>
			<point x="294" y="-124"/>
			<point x="286" y="-126"/>
			<point x="276" y="-126" type="curve" smooth="yes"/>
			<point x="254" y="-126"/>
			<point x="236" y="-114"/>
			<point x="236" y="-94" type="curve" smooth="yes"/>
			<point x="236" y="-70"/>
			<point x="258" y="-22"/>
			<point x="314" y="-8" type="curve" smooth="yes"/>
			<point x="486" y="34"/>
			<point x="580" y="212"/>
			<point x="580" y="394" type="curve" smooth="yes"/>
			<point x="580" y="562"/>
			<point x="493" y="662"/>
			<point x="358" y="662" type="curve" smooth="yes"/>
			<point x="165" y="662"/>
			<point x="26" y="486"/>
			<point x="26" y="256" type="curve" smooth="yes"/>
			<point x="26" y="106"/>
			<point x="92" y="18"/>
			<point x="202" y="-10" type="curve"/>
			<point x="162" y="-38"/>
			<point x="112" y="-88"/>
			<point x="112" y="-146" type="curve" smooth="yes"/>
			<point x="112" y="-198"/>
			<point x="154" y="-228"/>
		</contour>
		<contour>
			<point x="266" y="122" type="curve" smooth="yes"/>
			<point x="214" y="122"/>
			<point x="190" y="156"/>
			<point x="190" y="240" type="curve" smooth="yes"/>
			<point x="190" y="404"/>
			<point x="256" y="524"/>
			<point x="342" y="524" type="curve" smooth="yes"/>
			<point x="393" y="524"/>
			<point x="416" y="490"/>
			<point x="416" y="410" type="curve" smooth="yes"/>
			<point x="416" y="240"/>
			<point x="352" y="122"/>
		</contour>
		<contour>
			<point name="aboveUC" x="370" y="670" type="move"/>
		</contour>
	</outline>
</glyph>
<glyph name="b" format="1">
	<advance width="600"/>
	<outline>
		<contour>
			<point x="294" y="-12" type="curve" smooth="yes"/>
			<point x="432" y="-12"/>
			<point x="560" y="134"/>
			<point x="560" y="318" type="curve" smooth="yes"/>
			<point x="560" y="442"/>
			<point x="502" y="512"/>
			<point x="398" y="512" type="curve" smooth="yes"/>
			<point x="350" y="512"/>
			<point x="293" y="488"/>
			<point x="250" y="444" type="curve"/>
			<point x="248" y="444" type="line"/>
			<point x="278" y="550" type="line"/>
			<point x="308" y="696" type="line"/>
			<point x="148" y="696" type="line"/>
			<point x="8" y="0" type="line"/>
			<point x="140" y="0" type="line"/>
			<point x="162" y="50" type="line"/>
			<point x="164" y="50" type="line"/>
			<point x="188" y="12"/>
			<point x="240" y="-12"/>
		</contour>
		<contour>
			<point x="270" y="118" type="curve" smooth="yes"/>
			<point x="242" y="118"/>
			<point x="214" y="130"/>
			<point x="200" y="156" type="curve"/>
			<point x="230" y="306" type="line"/>
			<point x="264" y="362"/>
			<point x="302" y="382"/>
			<point x="334" y="382" type="curve" smooth="yes"/>
			<point x="368" y="382"/>
			<point x="394" y="358"/>
			<point x="394" y="298" type="curve" smooth="yes"/>
			<point x="394" y="192"/>
			<point x="333" y="118"/>
		</contour>
		<contour>
			<point name="aboveUC" x="236" y="730" type="move"/>
		</contour>
		<contour>
			<point name="belowLC" x="240" y="-20" type="move"/>
		</contour>
	</outline>
</glyph>
<glyph name="bracketleftwhite" format="1">
	<advance width="600"/>
	<outline>
		<contour>
			<point x="44" y="-152" type="line"/>
			<point x="400" y="-152" type="line"/>
			<point x="416" y="-68" type="line"/>
			<point x="306" y="-68" type="line"/>
			<point x="446" y="624" type="line"/>
			<point x="558" y="624" type="line"/>
			<point x="574" y="708" type="line"/>
			<point x="218" y="708" type="line"/>
		</contour>
		<contour>
			<point x="160" y="-68" type="line"/>
			<point x="300" y="624" type="line"/>
			<point x="358" y="624" type="line"/>
			<point x="218" y="-68" type="line"/>
		</contour>
	</outline>
</glyph>
<glyph name="brackhalftopright" format="1">
	<advance width="600"/>
	<outline>
		<contour>
			<point x="280" y="278" type="line"/>
			<point x="400" y="278" type="line"/>
			<point x="486" y="708" type="line"/>
			<point x="188" y="708" type="line"/>
			<point x="172" y="624" type="line"/>
			<point x="350" y="624" type="line"/>
		</contour>
	</outline>
</glyph>
<glyph name="bullet" format="1">
	<advance width="600"/>
	<outline>
		<contour>
			<point x="268" y="99" type="curve" smooth="yes"/>
			<point x="373" y="99"/>
			<point x="459" y="174"/>
			<point x="459" y="290" type="curve" smooth="yes"/>
			<point x="459" y="368"/>
			<point x="402" y="425"/>
			<point x="319" y="425" type="curve" smooth="yes"/>
			<point x="211" y="425"/>
			<point x="123" y="350"/>
			<point x="123" y="234" type="curve" smooth="yes"/>
			<point x="123" y="156"/>
			<point x="182" y="99"/>
		</contour>
	</outline>
</glyph>
<glyph name="bulletsquarewhite" format="1">
	<advance width="600"/>
	<outline>
		<contour>
			<point x="126" y="91" type="line"/>
			<point x="474" y="91" type="line"/>
			<point x="474" y="433" type="line"/>
			<point x="126" y="433" type="line"/>
		</contour>
		<contour>
			<point x="211" y="167" type="line"/>
			<point x="211" y="357" type="line"/>
			<point x="389" y="357" type="line"/>
			<point x="389" y="167" type="line"/>
		</contour>
	</outline>
</glyph>
<glyph name="degree" format="1">
	<advance width="600"/>
	<outline>
		<contour>
			<point x="315" y="393" type="curve" smooth="yes"/>
			<point x="417" y="393"/>
			<point x="495" y="463"/>
			<point x="495" y="565" type="curve" smooth="yes"/>
			<point x="495" y="635"/>
			<point x="450" y="686"/>
			<point x="371" y="686" type="curve" smooth="yes"/>
			<point x="272" y="686"/>
			<point x="193" y="616"/>
			<point x="193" y="514" type="curve" smooth="yes"/>
			<point x="193" y="443"/>
			<point x="244" y="393"/>
		</contour>
		<contour>
			<point x="330" y="466" type="curve" smooth="yes"/>
			<point x="296" y="466"/>
			<point x="276" y="489"/>
			<point x="276" y="525" type="curve" smooth="yes"/>
			<point x="276" y="573"/>
			<point x="312" y="616"/>
			<point x="360" y="616" type="curve" smooth="yes"/>
			<point x="394" y="616"/>
			<point x="412" y="593"/>
			<point x="412" y="556" type="curve" smooth="yes"/>
			<point x="412" y="506"/>
			<point x="377" y="466"/>
		</contour>
	</outline>
</glyph>
<glyph name="dieresisbelowcmb" format="1">
	<advance width="600"/>
	<outline>
		<component base="dieresiscmb" xOffset="-162" yOffset="-806"/>
		<contour>
			<point name="_belowLC" x="234" y="-20" type="move"/>
		</contour>
	</outline>
</glyph>
<glyph name="dollar.a" format="1">
	<advance width="600"/>
	<outline>
		<contour>
			<point x="261" y="34" type="curve" smooth="yes"/>
			<point x="395" y="34"/>
			<point x="500" y="93"/>
			<point x="500" y="217" type="curve" smooth="yes"/>
			<point x="500" y="308"/>
			<point x="432" y="347"/>
			<point x="351" y="384" type="curve" smooth="yes"/>
			<point x="296" y="409"/>
			<point x="259" y="426"/>
			<point x="259" y="454" type="curve" smooth="yes"/>
			<point x="259" y="480"/>
			<point x="282" y="491"/>
			<point x="315" y="491" type="curve" smooth="yes"/>
			<point x="365" y="491"/>
			<point x="403" y="474"/>
			<point x="443" y="432" type="curve"/>
			<point x="535" y="519" type="line"/>
			<point x="501" y="563"/>
			<point x="431" y="618"/>
			<point x="330" y="618" type="curve" smooth="yes"/>
			<point x="197" y="618"/>
			<point x="105" y="558"/>
			<point x="105" y="439" type="curve" smooth="yes"/>
			<point x="105" y="345"/>
			<point x="176" y="301"/>
			<point x="253" y="266" type="curve" smooth="yes"/>
			<point x="311" y="240"/>
			<point x="344" y="223"/>
			<point x="344" y="200" type="curve" smooth="yes"/>
			<point x="344" y="175"/>
			<point x="321" y="161"/>
			<point x="272" y="161" type="curve" smooth="yes"/>
			<point x="208" y="161"/>
			<point x="168" y="192"/>
			<point x="128" y="238" type="curve"/>
			<point x="33" y="142" type="line"/>
			<point x="77" y="87"/>
			<point x="154" y="34"/>
		</contour>
		<contour>
			<point x="171" y="-114" type="line"/>
			<point x="502" y="741" type="line"/>
			<point x="421" y="750" type="line"/>
			<point x="90" y="-104" type="line"/>
		</contour>
	</outline>
</glyph>
<glyph name="dotlessi" format="1">
	<advance width="600"/>
	<outline>
		<contour>
			<point x="340" y="-12" type="curve" smooth="yes"/>
			<point x="404" y="-12"/>
			<point x="450" y="-2"/>
			<point x="494" y="16" type="curve"/>
			<point x="462" y="136" type="line"/>
			<point x="432" y="124"/>
			<point x="412" y="118"/>
			<point x="390" y="118" type="curve" smooth="yes"/>
			<point x="358" y="118"/>
			<point x="336" y="133"/>
			<point x="336" y="170" type="curve" smooth="yes"/>
			<point x="336" y="178"/>
			<point x="338" y="186"/>
			<point x="340" y="194" type="curve" smooth="yes"/>
			<point x="414" y="500" type="line"/>
			<point x="96" y="500" type="line"/>
			<point x="70" y="376" type="line"/>
			<point x="228" y="376" type="line"/>
			<point x="182" y="200" type="line" smooth="yes"/>
			<point x="176" y="178"/>
			<point x="172" y="158"/>
			<point x="172" y="138" type="curve" smooth="yes"/>
			<point x="172" y="46"/>
			<point x="238" y="-12"/>
		</contour>
		<contour>
			<point name="aboveLC" x="320" y="520" type="move"/>
		</contour>
		<contour>
			<point name="baseLC" x="336" y="0" type="move"/>
		</contour>
		<contour>
			<point name="belowLC" x="304" y="-20" type="move"/>
		</contour>
		<contour>
			<point name="ogonekLC" x="336" y="0" type="move"/>
		</contour>
	</outline>
</glyph>
<glyph name="dotlessjstrokehook" format="1">
	<advance width="600"/>
	<outline>
		<contour>
			<point x="74" y="224" type="line"/>
			<point x="510" y="224" type="line"/>
			<point x="526" y="300" type="line"/>
			<point x="222" y="300" type="line"/>
			<point x="88" y="294" type="line"/>
		</contour>
		<component base="esh"/>
		<contour>
			<point name="aboveUC" x="470" y="730" type="move"/>
		</contour>
		<contour>
			<point name="belowLC" x="140" y="-200" type="move"/>
		</contour>
	</outline>
</glyph>
<glyph name="eighthnote" format="1">
	<advance width="600"/>
	<outline>
		<contour>
			<point x="162" y="-29" type="curve" smooth="yes"/>
			<point x="287" y="-29"/>
			<point x="366" y="43"/>
			<point x="366" y="177" type="curve" smooth="yes"/>
			<point x="366" y="528" type="line"/>
			<point x="434" y="506"/>
			<point x="472" y="446"/>
			<point x="472" y="388" type="curve" smooth="yes"/>
			<point x="472" y="352"/>
			<point x="468" y="326"/>
			<point x="458" y="296" type="curve"/>
			<point x="510" y="275" type="line"/>
			<point x="536" y="310"/>
			<point x="563" y="369"/>
			<point x="563" y="426" type="curve" smooth="yes"/>
			<point x="563" y="507"/>
			<point x="530" y="565"/>
			<point x="435" y="629" type="curve" smooth="yes"/>
			<point x="385" y="663"/>
			<point x="375" y="671"/>
			<point x="363" y="694" type="curve"/>
			<point x="278" y="694" type="line"/>
			<point x="278" y="182" type="line"/>
			<point x="270" y="188"/>
			<point x="246" y="194"/>
			<point x="220" y="194" type="curve" smooth="yes"/>
			<point x="125" y="194"/>
			<point x="48" y="133"/>
			<point x="48" y="59" type="curve" smooth="yes"/>
			<point x="48" y="-3"/>
			<point x="107" y="-29"/>
		</contour>
	</outline>
</glyph>
<glyph name="exclam" format="1">
	<advance width="600"/>
	<outline>
		<contour>
			<point x="240" y="264" type="line"/>
			<point x="344" y="264" type="line"/>
			<point x="426" y="522" type="line"/>
			<point x="456" y="670" type="line"/>
			<point x="292" y="670" type="line"/>
			<point x="268" y="522" type="line"/>
		</contour>
		<contour>
			<point x="248" y="-12" type="curve" smooth="yes"/>
			<point x="318" y="-12"/>
			<point x="366" y="42"/>
			<point x="366" y="108" type="curve" smooth="yes"/>
			<point x="366" y="160"/>
			<point x="330" y="198"/>
			<point x="280" y="198" type="curve" smooth="yes"/>
			<point x="210" y="198"/>
			<point x="162" y="144"/>
			<point x="162" y="78" type="curve" smooth="yes"/>
			<point x="162" y="26"/>
			<point x="198" y="-12"/>
		</contour>
	</outline>
</glyph>
<glyph name="four.cap" format="1">
	<advance width="600"/>
	<outline>
		<contour>
			<point x="282" y="0" type="line"/>
			<point x="426" y="0" type="line"/>
			<point x="556" y="650" type="line"/>
			<point x="360" y="650" type="line"/>
			<point x="26" y="266" type="line"/>
			<point x="4" y="154" type="line"/>
			<point x="530" y="154" type="line"/>
			<point x="554" y="276" type="line"/>
			<point x="188" y="276" type="line"/>
			<point x="296" y="408" type="line" smooth="yes"/>
			<point x="326" y="444"/>
			<point x="356" y="486"/>
			<point x="384" y="524" type="curve"/>
			<point x="384" y="524"/>
			<point x="388" y="524"/>
			<point x="388" y="524" type="curve"/>
			<point x="378" y="484"/>
			<point x="366" y="426"/>
			<point x="356" y="376" type="curve" smooth="yes"/>
		</contour>
	</outline>
</glyph>
<glyph name="guilsinglright" format="1">
	<advance width="600"/>
	<outline>
		<contour>
			<point x="185" y="20" type="line"/>
			<point x="393" y="183" type="line"/>
			<point x="416" y="311" type="line"/>
			<point x="278" y="484" type="line"/>
			<point x="199" y="425" type="line"/>
			<point x="274" y="260" type="line"/>
			<point x="130" y="83" type="line"/>
		</contour>
	</outline>
</glyph>
<glyph name="hturned" format="1">
	<advance width="600"/>
	<outline>
		<contour>
			<point x="278" y="-176" type="line"/>
			<point x="438" y="-176" type="line"/>
			<point x="574" y="500" type="line"/>
			<point x="414" y="500" type="line"/>
			<point x="356" y="202" type="line"/>
			<point x="317" y="150"/>
			<point x="271" y="124"/>
			<point x="238" y="124" type="curve" smooth="yes"/>
			<point x="212" y="124"/>
			<point x="197" y="137"/>
			<point x="197" y="165" type="curve" smooth="yes"/>
			<point x="197" y="177"/>
			<point x="200" y="192"/>
			<point x="204" y="210" type="curve" smooth="yes"/>
			<point x="262" y="500" type="line"/>
			<point x="102" y="500" type="line"/>
			<point x="40" y="190" type="line" smooth="yes"/>
			<point x="35" y="166"/>
			<point x="32" y="140"/>
			<point x="32" y="118" type="curve" smooth="yes"/>
			<point x="32" y="32"/>
			<point x="80" y="-12"/>
			<point x="162" y="-12" type="curve" smooth="yes"/>
			<point x="223" y="-12"/>
			<point x="288" y="26"/>
			<point x="334" y="76" type="curve"/>
			<point x="338" y="76" type="line"/>
			<point x="312" y="-12" type="line"/>
		</contour>
		<contour>
			<point name="aboveLC" x="334" y="520" type="move"/>
		</contour>
		<contour>
			<point name="belowLC" x="235" y="-20" type="move"/>
		</contour>
	</outline>
</glyph>
<glyph name="kgreenlandic" format="1">
	<advance width="600"/>
	<outline>
		<contour>
			<point x="10" y="0" type="line"/>
			<point x="170" y="0" type="line"/>
			<point x="192" y="114" type="line"/>
			<point x="346" y="246" type="line"/>
			<point x="618" y="500" type="line"/>
			<point x="434" y="500" type="line"/>
			<point x="236" y="316" type="line"/>
			<point x="232" y="316" type="line"/>
			<point x="268" y="500" type="line"/>
			<point x="108" y="500" type="line"/>
		</contour>
		<contour>
			<point x="278" y="218" type="line"/>
			<point x="370" y="0" type="line"/>
			<point x="530" y="0" type="line"/>
			<point x="378" y="328" type="line"/>
		</contour>
	</outline>
</glyph>
<glyph name="lbelt" format="1">
	<advance width="600"/>
	<outline>
		<contour>
			<point x="176" y="262" type="curve" smooth="yes"/>
			<point x="474" y="262" type="line"/>
			<point x="490" y="342" type="line"/>
			<point x="174" y="342" type="line" smooth="yes"/>
			<point x="140" y="342"/>
			<point x="126" y="356"/>
			<point x="126" y="372" type="curve" smooth="yes"/>
			<point x="126" y="388"/>
			<point x="136" y="400"/>
			<point x="156" y="400" type="curve" smooth="yes"/>
			<point x="196" y="400"/>
			<point x="208" y="368"/>
			<point x="202" y="342" type="curve"/>
			<point x="254" y="322" type="line"/>
			<point x="255" y="398"/>
			<point x="234" y="478"/>
			<point x="146" y="478" type="curve" smooth="yes"/>
			<point x="88" y="478"/>
			<point x="42" y="434"/>
			<point x="42" y="372" type="curve" smooth="yes"/>
			<point x="42" y="310"/>
			<point x="88" y="262"/>
		</contour>
		<component base="l" yOffset="1"/>
		<contour>
			<point name="aboveUC" x="360" y="730" type="move"/>
		</contour>
		<contour>
			<point name="belowLC" x="310" y="-20" type="move"/>
		</contour>
	</outline>
</glyph>
<glyph name="lcat" format="1">
	<advance width="600"/>
	<outline>
		<contour>
			<point x="168" y="-12" type="curve" smooth="yes"/>
			<point x="206" y="-12"/>
			<point x="234" y="-8"/>
			<point x="272" y="8" type="curve"/>
			<point x="240" y="126" type="line"/>
			<point x="226" y="120"/>
			<point x="214" y="118"/>
			<point x="200" y="118" type="curve" smooth="yes"/>
			<point x="176" y="118"/>
			<point x="156" y="132"/>
			<point x="156" y="164" type="curve" smooth="yes"/>
			<point x="156" y="180"/>
			<point x="158" y="190"/>
			<point x="160" y="198" type="curve" smooth="yes"/>
			<point x="272" y="696" type="line"/>
			<point x="30" y="696" type="line"/>
			<point x="4" y="572" type="line"/>
			<point x="98" y="572" type="line"/>
			<point x="16" y="220" type="line" smooth="yes"/>
			<point x="10" y="196"/>
			<point x="8" y="174"/>
			<point x="8" y="144" type="curve" smooth="yes"/>
			<point x="8" y="50"/>
			<point x="74" y="-12"/>
		</contour>
		<contour>
			<point x="267" y="306" type="curve" smooth="yes"/>
			<point x="309" y="306"/>
			<point x="343" y="337"/>
			<point x="351" y="376" type="curve" smooth="yes"/>
			<point x="359" y="414"/>
			<point x="337" y="446"/>
			<point x="295" y="446" type="curve" smooth="yes"/>
			<point x="253" y="446"/>
			<point x="219" y="414"/>
			<point x="211" y="376" type="curve" smooth="yes"/>
			<point x="203" y="337"/>
			<point x="225" y="306"/>
		</contour>
		<contour>
			<point x="480" y="-12" type="curve" smooth="yes"/>
			<point x="518" y="-12"/>
			<point x="546" y="-8"/>
			<point x="584" y="8" type="curve"/>
			<point x="552" y="126" type="line"/>
			<point x="538" y="120"/>
			<point x="526" y="118"/>
			<point x="512" y="118" type="curve" smooth="yes"/>
			<point x="488" y="118"/>
			<point x="468" y="132"/>
			<point x="468" y="164" type="curve" smooth="yes"/>
			<point x="468" y="180"/>
			<point x="470" y="190"/>
			<point x="472" y="198" type="curve" smooth="yes"/>
			<point x="584" y="696" type="line"/>
			<point x="342" y="696" type="line"/>
			<point x="316" y="572" type="line"/>
			<point x="410" y="572" type="line"/>
			<point x="328" y="220" type="line" smooth="yes"/>
			<point x="322" y="196"/>
			<point x="320" y="174"/>
			<point x="320" y="144" type="curve" smooth="yes"/>
			<point x="320" y="50"/>
			<point x="386" y="-12"/>
		</contour>
	</outline>
</glyph>
<glyph name="lira" format="1">
	<advance width="600"/>
	<outline>
		<contour>
			<point x="12" y="0" type="line"/>
			<point x="458" y="0" type="line"/>
			<point x="482" y="134" type="line"/>
			<point x="246" y="134" type="line"/>
			<point x="248" y="138" type="line"/>
			<point x="298" y="188"/>
			<point x="318" y="232"/>
			<point x="318" y="306" type="curve" smooth="yes"/>
			<point x="318" y="332"/>
			<point x="312" y="368"/>
			<point x="312" y="394" type="curve" smooth="yes"/>
			<point x="312" y="490"/>
			<point x="348" y="518"/>
			<point x="396" y="518" type="curve" smooth="yes"/>
			<point x="426" y="518"/>
			<point x="454" y="502"/>
			<point x="476" y="474" type="curve"/>
			<point x="578" y="558" type="line"/>
			<point x="538" y="612"/>
			<point x="468" y="646"/>
			<point x="396" y="646" type="curve" smooth="yes"/>
			<point x="260" y="646"/>
			<point x="164" y="560"/>
			<point x="164" y="418" type="curve" smooth="yes"/>
			<point x="164" y="380"/>
			<point x="174" y="326"/>
			<point x="174" y="288" type="curve" smooth="yes"/>
			<point x="174" y="200"/>
			<point x="114" y="132"/>
			<point x="32" y="98" type="curve"/>
		</contour>
		<contour>
			<point x="78" y="338" type="line"/>
			<point x="468" y="338" type="line"/>
			<point x="484" y="416" type="line"/>
			<point x="171" y="416" type="line"/>
			<point x="92" y="410" type="line"/>
		</contour>
		<contour>
			<point x="52" y="212" type="line"/>
			<point x="442" y="212" type="line"/>
			<point x="458" y="290" type="line"/>
			<point x="146" y="290" type="line"/>
			<point x="66" y="284" type="line"/>
		</contour>
	</outline>
</glyph>
<glyph name="longs" format="1">
	<advance width="600"/>
	<outline>
		<contour>
			<point x="134" y="0" type="line"/>
			<point x="294" y="0" type="line"/>
			<point x="394" y="508" type="line" smooth="yes"/>
			<point x="405" y="562"/>
			<point x="439" y="582"/>
			<point x="486" y="582" type="curve" smooth="yes"/>
			<point x="524" y="582"/>
			<point x="547" y="574"/>
			<point x="574" y="556" type="curve"/>
			<point x="644" y="656" type="line"/>
			<point x="612" y="680"/>
			<point x="558" y="708"/>
			<point x="478" y="708" type="curve" smooth="yes"/>
			<point x="342" y="708"/>
			<point x="262" y="638"/>
			<point x="236" y="508" type="curve" smooth="yes"/>
		</contour>
		<contour>
			<point x="78" y="376" type="line"/>
			<point x="290" y="376" type="line"/>
			<point x="314" y="500" type="line"/>
			<point x="236" y="500" type="line"/>
			<point x="102" y="494" type="line"/>
		</contour>
	</outline>
</glyph>
<glyph name="multiply" format="1">
	<advance width="600"/>
	<outline>
		<contour>
			<point x="160" y="109" type="line"/>
			<point x="300" y="249" type="line"/>
			<point x="440" y="109" type="line"/>
			<point x="520" y="189" type="line"/>
			<point x="380" y="329" type="line"/>
			<point x="520" y="470" type="line"/>
			<point x="440" y="550" type="line"/>
			<point x="300" y="409" type="line"/>
			<point x="160" y="550" type="line"/>
			<point x="80" y="470" type="line"/>
			<point x="220" y="329" type="line"/>
			<point x="80" y="189" type="line"/>
		</contour>
	</outline>
</glyph>
<glyph name="ohorn" format="1">
	<advance width="600"/>
	<outline>
		<contour>
			<point x="492" y="433" type="line"/>
			<point x="598" y="460"/>
			<point x="646" y="512"/>
			<point x="646" y="618" type="curve" smooth="yes"/>
			<point x="646" y="650"/>
			<point x="642" y="670"/>
			<point x="630" y="704" type="curve"/>
			<point x="512" y="668" type="line"/>
			<point x="518" y="648"/>
			<point x="522" y="630"/>
			<point x="522" y="610" type="curve" smooth="yes"/>
			<point x="522" y="538"/>
			<point x="488" y="498"/>
			<point x="430" y="490" type="curve"/>
		</contour>
		<component base="o"/>
		<contour>
			<point name="aboveLC" x="340" y="520" type="move"/>
		</contour>
		<contour>
			<point name="belowLC" x="234" y="-20" type="move"/>
		</contour>
	</outline>
</glyph>
<glyph name="orthogonal" format="1">
	<advance width="600"/>
	<outline>
		<contour>
			<point x="67" y="92" type="line"/>
			<point x="533" y="92" type="line"/>
			<point x="533" y="204" type="line"/>
			<point x="183" y="204" type="line"/>
			<point x="183" y="568" type="line"/>
			<point x="67" y="568" type="line"/>
		</contour>
	</outline>
</glyph>
<glyph name="p" format="1">
	<advance width="600"/>
	<outline>
		<contour>
			<point x="-28" y="-176" type="line"/>
			<point x="132" y="-176" type="line"/>
			<point x="156" y="-52" type="line"/>
			<point x="168" y="42" type="line"/>
			<point x="170" y="42" type="line"/>
			<point x="196" y="8"/>
			<point x="244" y="-12"/>
			<point x="294" y="-12" type="curve" smooth="yes"/>
			<point x="454" y="-12"/>
			<point x="560" y="134"/>
			<point x="560" y="318" type="curve" smooth="yes"/>
			<point x="560" y="442"/>
			<point x="500" y="512"/>
			<point x="400" y="512" type="curve" smooth="yes"/>
			<point x="340" y="512"/>
			<point x="290" y="482"/>
			<point x="242" y="432" type="curve"/>
			<point x="239" y="432" type="line"/>
			<point x="238" y="500" type="line"/>
			<point x="108" y="500" type="line"/>
		</contour>
		<contour>
			<point x="276" y="118" type="curve" smooth="yes"/>
			<point x="248" y="118"/>
			<point x="214" y="130"/>
			<point x="200" y="156" type="curve"/>
			<point x="232" y="306" type="line"/>
			<point x="266" y="362"/>
			<point x="302" y="382"/>
			<point x="334" y="382" type="curve" smooth="yes"/>
			<point x="368" y="382"/>
			<point x="394" y="357"/>
			<point x="394" y="298" type="curve" smooth="yes"/>
			<point x="394" y="192"/>
			<point x="339" y="118"/>
		</contour>
		<contour>
			<point name="aboveLC" x="374" y="520" type="move"/>
		</contour>
		<contour>
			<point name="belowLC" x="64" y="-200" type="move"/>
		</contour>
	</outline>
</glyph>
<glyph name="quoteleft" format="1">
	<advance width="600"/>
	<outline>
		<contour>
			<point x="310" y="290" type="curve" smooth="yes"/>
			<point x="376" y="290"/>
			<point x="428" y="344"/>
			<point x="428" y="414" type="curve" smooth="yes"/>
			<point x="428" y="472"/>
			<point x="394" y="502"/>
			<point x="354" y="502" type="curve" smooth="yes"/>
			<point x="328" y="502"/>
			<point x="288" y="488"/>
			<point x="272" y="478" type="curve"/>
			<point x="304" y="375" type="line"/>
			<point x="330" y="497" type="line"/>
			<point x="346" y="542"/>
			<point x="398" y="592"/>
			<point x="482" y="610" type="curve"/>
			<point x="464" y="690" type="line"/>
			<point x="310" y="658"/>
			<point x="200" y="554"/>
			<point x="200" y="416" type="curve" smooth="yes"/>
			<point x="200" y="336"/>
			<point x="242" y="290"/>
		</contour>
	</outline>
</glyph>
<glyph name="righttackbelowcmb" format="1">
	<advance width="600"/>
	<outline>
		<contour>
			<point x="86" y="-260" type="line"/>
			<point x="171" y="-260" type="line"/>
			<point x="183" y="-196" type="line"/>
			<point x="287" y="-196" type="line"/>
			<point x="303" y="-116" type="line"/>
			<point x="199" y="-116" type="line"/>
			<point x="212" y="-52" type="line"/>
			<point x="128" y="-52" type="line"/>
		</contour>
		<contour>
			<point name="_belowLC" x="234" y="-20" type="move"/>
		</contour>
	</outline>
</glyph>
<glyph name="ringhalfrightbelowcmb" format="1">
	<advance width="600"/>
	<outline>
		<contour>
			<point x="122" y="-258" type="line"/>
			<point x="236" y="-258"/>
			<point x="296" y="-208"/>
			<point x="296" y="-142" type="curve" smooth="yes"/>
			<point x="296" y="-84"/>
			<point x="246" y="-46"/>
			<point x="162" y="-50" type="curve"/>
			<point x="150" y="-110" type="line"/>
			<point x="182" y="-110"/>
			<point x="196" y="-128"/>
			<point x="196" y="-150" type="curve" smooth="yes"/>
			<point x="196" y="-174"/>
			<point x="176" y="-196"/>
			<point x="134" y="-198" type="curve"/>
		</contour>
		<contour>
			<point name="_belowLC" x="234" y="-20" type="move"/>
		</contour>
	</outline>
</glyph>
<glyph name="seven" format="1">
	<advance width="600"/>
	<outline>
		<contour>
			<point x="118" y="0" type="curve"/>
			<point x="282" y="0" type="line"/>
			<point x="342" y="246"/>
			<point x="374" y="360"/>
			<point x="572" y="534" type="curve"/>
			<point x="592" y="634" type="line"/>
			<point x="120" y="634" type="line"/>
			<point x="94" y="500" type="line"/>
			<point x="416" y="500" type="line"/>
			<point x="395" y="515" type="line"/>
			<point x="246" y="378"/>
			<point x="168" y="228"/>
		</contour>
	</outline>
</glyph>
<glyph name="six.dnom" format="1">
	<advance width="600"/>
	<outline>
		<contour>
			<point x="261" y="-12" type="curve" smooth="yes"/>
			<point x="342" y="-12"/>
			<point x="405" y="32"/>
			<point x="405" y="108" type="curve" smooth="yes"/>
			<point x="405" y="170"/>
			<point x="363" y="197"/>
			<point x="319" y="197" type="curve" smooth="yes"/>
			<point x="275" y="197"/>
			<point x="244" y="181"/>
			<point x="224" y="158" type="curve"/>
			<point x="226" y="109" type="line"/>
			<point x="239" y="121"/>
			<point x="254" y="129"/>
			<point x="274" y="129" type="curve" smooth="yes"/>
			<point x="292" y="129"/>
			<point x="304" y="120"/>
			<point x="304" y="100" type="curve" smooth="yes"/>
			<point x="304" y="76"/>
			<point x="287" y="64"/>
			<point x="267" y="64" type="curve" smooth="yes"/>
			<point x="243" y="64"/>
			<point x="230" y="82"/>
			<point x="230" y="117" type="curve" smooth="yes"/>
			<point x="230" y="191"/>
			<point x="270" y="244"/>
			<point x="325" y="244" type="curve" smooth="yes"/>
			<point x="347" y="244"/>
			<point x="364" y="234"/>
			<point x="378" y="219" type="curve"/>
			<point x="434" y="279" type="line"/>
			<point x="415" y="303"/>
			<point x="378" y="325"/>
			<point x="329" y="325" type="curve" smooth="yes"/>
			<point x="213" y="325"/>
			<point x="130" y="245"/>
			<point x="130" y="120" type="curve" smooth="yes"/>
			<point x="130" y="35"/>
			<point x="181" y="-12"/>
		</contour>
	</outline>
</glyph>
<glyph name="tildeoverlaycmb" format="1">
	<advance width="600"/>
	<outline>
		<contour>
			<point x="388" y="162" type="curve" smooth="yes"/>
			<point x="458" y="162"/>
			<point x="510" y="208"/>
			<point x="528" y="320" type="curve"/>
			<point x="424" y="326" type="line"/>
			<point x="418" y="290"/>
			<point x="402" y="280"/>
			<point x="386" y="280" type="curve" smooth="yes"/>
			<point x="328" y="280"/>
			<point x="282" y="336"/>
			<point x="192" y="336" type="curve" smooth="yes"/>
			<point x="122" y="336"/>
			<point x="70" y="290"/>
			<point x="52" y="178" type="curve"/>
			<point x="156" y="172" type="line"/>
			<point x="162" y="208"/>
			<point x="178" y="218"/>
			<point x="194" y="218" type="curve" smooth="yes"/>
			<point x="252" y="218"/>
			<point x="298" y="162"/>
		</contour>
		<contour>
			<point name="_center" x="288" y="250" type="move"/>
		</contour>
	</outline>
</glyph>
<glyph name="underscore" format="1">
	<advance width="600"/>
	<outline>
		<contour>
			<point x="-34" y="-168" type="line"/>
			<point x="446" y="-168" type="line"/>
			<point x="470" y="-50" type="line"/>
			<point x="-10" y="-50" type="line"/>
		</contour>
	</outline>
</glyph>
<glyph name="uniE0B3" format="1">
	<advance width="600"/>
	<outline>
		<contour>
			<point x="530" y="-214" type="line"/>
			<point x="618" y="-127" type="line"/>
			<point x="136" y="380" type="line"/>
			<point x="618" y="887" type="line"/>
			<point x="530" y="974" type="line"/>
			<point x="-28" y="380" type="line"/>
		</contour>
	</outline>
</glyph>
<glyph name="vturned" format="1">
	<advance width="600"/>
	<outline>
		<component base="v" xScale="-1" yScale="-1" xOffset="580" yOffset="500"/>
		<contour>
			<point name="aboveLC" x="340" y="520" type="move"/>
		</contour>
		<contour>
			<point name="belowLC" x="240" y="-20" type="move"/>
		</contour>
	</outline>
</glyph>
<glyph name="zero.dnom" format="1">
	<advance width="600"/>
	<outline>
		<contour>
			<point x="244" y="-12" type="curve" smooth="yes"/>
			<point x="342" y="-12"/>
			<point x="426" y="74"/>
			<point x="426" y="190" type="curve" smooth="yes"/>
			<point x="426" y="277"/>
			<point x="370" y="326"/>
			<point x="296" y="326" type="curve" smooth="yes"/>
			<point x="198" y="326"/>
			<point x="114" y="240"/>
			<point x="114" y="124" type="curve" smooth="yes"/>
			<point x="114" y="37"/>
			<point x="170" y="-12"/>
		</contour>
		<contour>
			<point x="256" y="72" type="curve" smooth="yes"/>
			<point x="236" y="72"/>
			<point x="223" y="87"/>
			<point x="223" y="126" type="curve" smooth="yes"/>
			<point x="223" y="197"/>
			<point x="253" y="242"/>
			<point x="284" y="242" type="curve" smooth="yes"/>
			<point x="304" y="242"/>
			<point x="317" y="227"/>
			<point x="317" y="188" type="curve" smooth="yes"/>
			<point x="317" y="117"/>
			<point x="287" y="72"/>
		</contour>
	</outline>
</glyph>
